<?xml version="1.0" encoding="utf-8"?>
<!-- Generator: Adobe Illustrator 19.0.0, SVG Export Plug-In . SVG Version: 6.00 Build 0)  -->
<svg version="1.1" xmlns="http://www.w3.org/2000/svg" xmlns:xlink="http://www.w3.org/1999/xlink" x="0px" y="0px"
	 viewBox="0 0 472.7 116.8" style="enable-background:new 0 0 472.7 116.8;" xml:space="preserve">
<style type="text/css">
	.st0{fill:#00749A;}
	.st1{fill:#464342;}
	.st2{fill:#D92827;stroke:url(#_x32__2_);stroke-miterlimit:3;}
	.st3{opacity:0.2;fill:#FFFFFF;}
	.st4{fill:#F6EB16;}
	.st5{opacity:0.56;fill:#DEDDDD;}
</style>
<g id="Layer_1">
</g>
<g id="Layer_2">
	<path class="st0" d="M247.2,48.1H232v1.6c4.7,0,5.5,1,5.5,7v10.8c0,6-0.8,7.1-5.5,7.1c-3.6-0.5-6.1-2.5-9.5-6.2l-3.9-4.2
		c5.2-0.9,8-4.2,8-8c0-4.7-4-8.2-11.4-8.2h-14.9v1.6c4.7,0,5.5,1,5.5,7v10.8c0,6-0.8,7.1-5.5,7.1v1.6h16.8v-1.6
		c-4.7,0-5.5-1.1-5.5-7.1v-3h1.4l9.4,11.8h24.6c12.1,0,17.4-6.4,17.4-14.1C264.5,54.5,259.3,48.1,247.2,48.1z M211.7,61.9V50.7h3.5
		c3.8,0,5.5,2.6,5.5,5.7c0,3-1.7,5.6-5.5,5.6H211.7z M247.4,73.7h-0.6c-3,0-3.5-0.8-3.5-4.7V50.7c0,0,3.7,0,4.1,0
		c8.8,0,10.4,6.4,10.4,11.4C257.8,67.3,256.2,73.7,247.4,73.7z"/>
	<path class="st0" d="M153.2,65.1l5.8-17.3c1.7-5,0.9-6.4-4.5-6.4v-1.7h15.9v1.7c-5.3,0-6.6,1.3-8.7,7.4l-9.6,28.9H151l-8.6-26.5
		l-8.8,26.5h-1.1l-9.4-28.9c-2-6.2-3.4-7.4-8.3-7.4v-1.7h18.8v1.7c-5,0-6.3,1.2-4.6,6.4l5.7,17.3l8.5-25.4h1.6L153.2,65.1z"/>
	<path class="st0" d="M182,77.4c-9.3,0-16.9-6.9-16.9-15.2c0-8.3,7.6-15.2,16.9-15.2c9.3,0,16.9,6.9,16.9,15.2
		C198.9,70.6,191.3,77.4,182,77.4z M182,49.6c-7.8,0-10.5,7-10.5,12.5c0,5.6,2.7,12.5,10.5,12.5c7.9,0,10.6-6.9,10.6-12.5
		C192.6,56.7,189.9,49.6,182,49.6z"/>
	<path class="st1" d="M285.4,74.6v1.7H266v-1.7c5.7,0,6.7-1.4,6.7-9.9V51.2c0-8.5-1-9.8-6.7-9.8v-1.7h17.5c8.7,0,13.5,4.5,13.5,10.5
		c0,5.8-4.8,10.4-13.5,10.4h-4.8v4.1C278.7,73.2,279.8,74.6,285.4,74.6z M283.6,42.7h-4.8v14.7h4.8c4.7,0,6.9-3.3,6.9-7.3
		C290.5,46.1,288.3,42.7,283.6,42.7z"/>
	<path class="st1" d="M355.2,68.4l-0.4,1.5c-0.8,2.8-1.7,3.8-7.7,3.8h-1.2c-4.4,0-5.2-1-5.2-7v-3.9c6.6,0,7.1,0.6,7.1,5h1.6V55.1
		h-1.6c0,4.4-0.5,5-7.1,5v-9.5h4.7c6,0,6.9,1,7.7,3.8l0.4,1.6h1.4l-0.6-8h-24.9v1.6c4.7,0,5.5,1,5.5,7v10.8c0,5.5-0.6,6.9-4.4,7.1
		c-3.6-0.5-6-2.5-9.3-6.1l-3.9-4.2c5.2-0.9,8-4.2,8-8c0-4.7-4-8.2-11.4-8.2H299v1.6c4.7,0,5.5,1,5.5,7v10.8c0,6-0.8,7.1-5.5,7.1v1.6
		h16.8v-1.6c-4.7,0-5.5-1.1-5.5-7.1v-3h1.4l9.4,11.8H356l0.5-8H355.2z M310.4,61.9V50.7h3.5c3.8,0,5.5,2.6,5.5,5.7
		c0,3-1.7,5.6-5.5,5.6H310.4z"/>
	<path class="st1" d="M372.4,77.4c-3.4,0-6.3-1.8-7.6-2.9c-0.4,0.4-1.2,1.7-1.4,2.9h-1.6V65.7h1.7c0.7,5.6,4.6,8.9,9.6,8.9
		c2.7,0,4.9-1.5,4.9-4.1c0-2.2-1.9-3.9-5.4-5.5l-4.8-2.3c-3.4-1.6-5.9-4.4-5.9-8.1c0-4.1,3.8-7.5,9.1-7.5c2.8,0,5.2,1,6.6,2.2
		c0.4-0.3,0.8-1.3,1.1-2.3h1.6v10h-1.8c-0.6-4-2.8-7.3-7.3-7.3c-2.4,0-4.6,1.4-4.6,3.5c0,2.2,1.8,3.4,5.8,5.2l4.7,2.3
		c4.1,1.9,5.7,5.1,5.7,7.6C382.8,73.7,378.1,77.4,372.4,77.4z"/>
	<path class="st1" d="M398.5,77.4c-3.4,0-6.3-1.8-7.6-2.9c-0.4,0.4-1.2,1.7-1.4,2.9h-1.6V65.7h1.7c0.7,5.6,4.6,8.9,9.6,8.9
		c2.7,0,4.9-1.5,4.9-4.1c0-2.2-1.9-3.9-5.4-5.5l-4.8-2.3c-3.4-1.6-5.9-4.4-5.9-8.1c0-4.1,3.8-7.5,9.1-7.5c2.8,0,5.2,1,6.6,2.2
		c0.4-0.3,0.8-1.3,1.1-2.3h1.6v10h-1.8c-0.6-4-2.8-7.3-7.3-7.3c-2.4,0-4.6,1.4-4.6,3.5c0,2.2,1.8,3.4,5.8,5.2l4.7,2.3
		c4.1,1.9,5.7,5.1,5.7,7.6C408.8,73.7,404.2,77.4,398.5,77.4z"/>
	<g>
		<path class="st1" d="M30.2,57.4c0,14.8,8.6,27.6,21.1,33.7l-17.9-49C31.3,46.8,30.2,52,30.2,57.4z"/>
		<path class="st1" d="M92.9,55.5c0-4.6-1.7-7.8-3.1-10.3c-1.9-3.1-3.7-5.7-3.7-8.8c0-3.4,2.6-6.6,6.3-6.6c0.2,0,0.3,0,0.5,0
			C86.2,23.7,77.4,20,67.6,20C54.5,20,43,26.7,36.3,36.8c0.9,0,1.7,0,2.4,0c3.9,0,10-0.5,10-0.5c2-0.1,2.3,2.8,0.2,3.1
			c0,0-2,0.2-4.3,0.4l13.6,40.6l8.2-24.6l-5.8-16c-2-0.1-3.9-0.4-3.9-0.4c-2-0.1-1.8-3.2,0.2-3.1c0,0,6.2,0.5,9.9,0.5
			c3.9,0,10-0.5,10-0.5c2-0.1,2.3,2.8,0.2,3.1c0,0-2,0.2-4.3,0.4l13.5,40.3L90,67.6C91.7,62.4,92.9,58.7,92.9,55.5z"/>
		<path class="st1" d="M68.3,60.7L57,93.3c3.4,1,6.9,1.5,10.6,1.5c4.4,0,8.5-0.8,12.4-2.1c-0.1-0.2-0.2-0.3-0.3-0.5L68.3,60.7z"/>
		<path class="st1" d="M100.5,39.4c0.2,1.2,0.3,2.5,0.3,3.9c0,3.8-0.7,8.1-2.8,13.4L86.4,89.8c11.1-6.5,18.6-18.6,18.6-32.4
			C105.1,50.9,103.4,44.8,100.5,39.4z"/>
		<path class="st1" d="M67.6,13.7c-24.1,0-43.7,19.6-43.7,43.7c0,24.1,19.6,43.7,43.7,43.7c24.1,0,43.7-19.6,43.7-43.7
			C111.3,33.3,91.7,13.7,67.6,13.7z M67.6,99.1c-23,0-41.7-18.7-41.7-41.7c0-23,18.7-41.7,41.7-41.7c23,0,41.7,18.7,41.7,41.7
			C109.3,80.4,90.6,99.1,67.6,99.1z"/>
	</g>
	<g>
		<g>
			<radialGradient id="_x32__2_" cx="440.5098" cy="42.1674" r="20.9789" gradientUnits="userSpaceOnUse">
				<stop  offset="0" style="stop-color:#FFFFFF;stop-opacity:0"/>
				<stop  offset="0.2728" style="stop-color:#A28F90;stop-opacity:5.456802e-02"/>
				<stop  offset="0.6275" style="stop-color:#54383C;stop-opacity:0.1255"/>
				<stop  offset="0.8784" style="stop-color:#2C0610;stop-opacity:0.1757"/>
				<stop  offset="1" style="stop-color:#1A0000;stop-opacity:0.2"/>
			</radialGradient>
			<path id="_x32__1_" class="st2" d="M417.9,25.5c1.7,0.4,6.2,1.9,10.7,2.1c7.6,0.2,11.1-2.2,19-2.2c2.8,0,7.2,0.6,11.3,1.7
				c1.9,2.8,2.5,7.3,3.5,11.7c0.9,4.1,1.7,7.7,1.7,11.3c-1.1-0.3-3-0.7-5.2-0.9c-8.5-0.5-14.1,3.4-21.2,6.1
				c-4.1,1.6-11.2,4.5-19.4,3.6c0.6-5.6,0.7-9.1,0.4-12.1c-0.3-2.7-1.5-7.7-1.7-12.6C416.8,30.4,417.7,26.7,417.9,25.5z"/>
			<path class="st3" d="M446.3,31.1c-5.1,0.8-10.5,3.9-16.9,4.4c-4.9,0.3-12-0.7-12-0.7c0,0,0-4,0.4-5.9c0.2-1,0.3-2.1,0.4-2.7
				c1.6,0.6,3.7,1.2,6.3,1.6c1.6,0.2,4.2,0.5,7.4,0.4c5-0.3,5.9-1.4,12.2-2c0.2,0,1.9-0.2,5.3-0.1c1.7,0,3.1,0.2,4.2,0.4
				c1.6,0.3,1.2,0.4,2.8,0.7c1.2,0.2,1.7,0.4,2.1,0.5c0,0,0.6,1.1,0.7,1.4c0.2,0.4,0.3,0.8,0.3,0.8
				C459.7,29.8,453.6,29.9,446.3,31.1z"/>
			<polygon id="_x31_" class="st4" points="432.7,39.3 437.9,41.7 437.3,47.4 441.1,43.2 446.3,45.5 443.5,40.5 447.3,36.3 
				441.7,37.4 438.9,32.5 438.3,38.1 			"/>
		</g>
		<ellipse class="st5" cx="440.8" cy="66" rx="21.4" ry="1.4"/>
	</g>
</g>
</svg>
