<?xml version="1.0" encoding="utf-8"?>
<!-- Generator: Adobe Illustrator 19.0.0, SVG Export Plug-In . SVG Version: 6.00 Build 0)  -->
<svg version="1.1" xmlns="http://www.w3.org/2000/svg" xmlns:xlink="http://www.w3.org/1999/xlink" x="0px" y="0px"
	 viewBox="0 0 182 153.8" style="enable-background:new 0 0 182 153.8;" xml:space="preserve">
<style type="text/css">
	.st0{fill:#464342;}
	.st1{fill:#D92827;stroke:url(#_x32__2_);stroke-width:1.1993;stroke-miterlimit:3;}
	.st2{opacity:0.2;fill:#FFFFFF;}
	.st3{fill:#F6EB16;}
	.st4{opacity:0.56;fill:#DEDDDD;}
</style>
<g id="Layer_1">
</g>
<g id="Layer_2">
	<g>
		<g>
			<path class="st0" d="M14,81.2c0,20,11.6,37.3,28.5,45.5L18.3,60.7C15.5,66.9,14,73.9,14,81.2z"/>
			<path class="st0" d="M98.6,78.7c0-6.2-2.2-10.6-4.2-13.9c-2.6-4.2-5-7.7-5-11.9c0-4.6,3.5-9,8.5-9c0.2,0,0.4,0,0.7,0
				c-9-8.2-21-13.3-34.1-13.3c-17.7,0-33.2,9.1-42.2,22.8c1.2,0,2.3,0.1,3.3,0.1c5.3,0,13.5-0.6,13.5-0.6c2.7-0.2,3,3.8,0.3,4.2
				c0,0-2.7,0.3-5.8,0.5l18.4,54.7L63,79.1l-7.9-21.6c-2.7-0.2-5.3-0.5-5.3-0.5c-2.7-0.2-2.4-4.3,0.3-4.2c0,0,8.3,0.6,13.3,0.6
				c5.3,0,13.5-0.6,13.5-0.6c2.7-0.2,3,3.8,0.3,4.2c0,0-2.7,0.3-5.8,0.5l18.3,54.3l5-16.8C97,88,98.6,83,98.6,78.7z"/>
			<path class="st0" d="M65.4,85.7l-15.2,44.1c4.5,1.3,9.3,2.1,14.3,2.1c5.9,0,11.5-1,16.8-2.9c-0.1-0.2-0.3-0.4-0.4-0.7L65.4,85.7z
				"/>
			<path class="st0" d="M108.9,57c0.2,1.6,0.3,3.3,0.3,5.2c0,5.1-1,10.9-3.8,18.1l-15.4,44.6c15-8.8,25.1-25,25.1-43.7
				C115,72.4,112.8,64.2,108.9,57z"/>
			<path class="st0" d="M64.5,22.3C32,22.3,5.6,48.7,5.6,81.2c0,32.5,26.4,58.9,58.9,58.9c32.5,0,58.9-26.4,58.9-58.9
				C123.4,48.7,97,22.3,64.5,22.3z M64.5,137.4c-31,0-56.2-25.2-56.2-56.2c0-31,25.2-56.2,56.2-56.2c31,0,56.2,25.2,56.2,56.2
				C120.7,112.2,95.5,137.4,64.5,137.4z"/>
		</g>
	</g>
	<g>
		<g>
			<radialGradient id="_x32__2_" cx="150.9909" cy="35.0234" r="25.1593" gradientUnits="userSpaceOnUse">
				<stop  offset="0" style="stop-color:#FFFFFF;stop-opacity:0"/>
				<stop  offset="0.2728" style="stop-color:#A28F90;stop-opacity:5.456802e-02"/>
				<stop  offset="0.6275" style="stop-color:#54383C;stop-opacity:0.1255"/>
				<stop  offset="0.8784" style="stop-color:#2C0610;stop-opacity:0.1757"/>
				<stop  offset="1" style="stop-color:#1A0000;stop-opacity:0.2"/>
			</radialGradient>
			<path id="_x32__1_" class="st1" d="M123.9,15c2,0.5,7.5,2.3,12.9,2.5c9.1,0.3,13.3-2.7,22.8-2.6c3.3,0,8.7,0.7,13.5,2.1
				c2.2,3.3,3,8.7,4.2,14c1.1,4.9,2.1,9.3,2.1,13.5c-1.4-0.4-3.5-0.9-6.2-1c-10.2-0.7-16.9,4-25.5,7.3c-4.9,1.9-13.4,5.4-23.3,4.3
				c0.7-6.7,0.9-10.9,0.5-14.5c-0.3-3.3-1.8-9.2-2-15.1C122.5,20.9,123.7,16.5,123.9,15z"/>
			<path class="st2" d="M157.9,21.7c-6.1,1-12.6,4.7-20.2,5.2c-5.9,0.4-14.4-0.9-14.4-0.9c0,0,0-4.8,0.4-7.1
				c0.2-1.3,0.4-2.5,0.5-3.2c1.9,0.7,4.5,1.4,7.6,1.9c1.9,0.3,5,0.7,8.9,0.4c5.9-0.3,7.1-1.7,14.6-2.4c0.3,0,2.3-0.3,6.3-0.2
				c2,0.1,3.7,0.2,5,0.5c1.9,0.3,1.5,0.5,3.3,0.8c1.4,0.2,2.1,0.5,2.6,0.6c0,0,0.7,1.4,0.8,1.6c0.2,0.5,0.3,0.9,0.3,0.9
				C174,20.2,166.7,20.3,157.9,21.7z"/>
			<polygon id="_x31_" class="st3" points="141.6,31.6 147.8,34.4 147.1,41.3 151.7,36.2 158,39 154.5,33 159.1,27.9 152.4,29.3 
				149,23.4 148.3,30.2 			"/>
		</g>
		<ellipse class="st4" cx="151.8" cy="63" rx="25.2" ry="1.4"/>
	</g>
</g>
</svg>
